<svg xmlns="http://www.w3.org/2000/svg" viewBox="0 0 36 36" role="img" aria-label="Sri Lanka flag">
  <rect width="36" height="36" rx="18" fill="#f6b52e"/>
  <clipPath id="a">
    <rect x="4" y="4" width="28" height="28" rx="14"/>
  </clipPath>
  <g clip-path="url(#a)">
    <rect x="4" y="4" width="28" height="28" fill="#f6b52e"/>
    <rect x="6" y="6" width="5" height="24" fill="#0b7a75"/>
    <rect x="11" y="6" width="5" height="24" fill="#f28c28"/>
    <rect x="17" y="6" width="13" height="24" fill="#7b1732"/>
    <rect x="18.7" y="7.7" width="9.6" height="20.6" fill="none" stroke="#f6b52e" stroke-width="1.4"/>
    <circle cx="20.7" cy="9.7" r="1" fill="#f6b52e"/>
    <circle cx="26.3" cy="9.7" r="1" fill="#f6b52e"/>
    <circle cx="20.7" cy="26.3" r="1" fill="#f6b52e"/>
    <circle cx="26.3" cy="26.3" r="1" fill="#f6b52e"/>
    <path d="M23.5 13.2c-2 0-3.4 1.7-3.4 3.9 0 3.6 3.3 6 6.7 5.4-1.6-.8-2.6-2-2.6-3.4h2.7l-1.5-2.1 1.7-1.7-2.3.1c-.1-1.3-.5-2.2-1.3-2.2Z" fill="#f6b52e"/>
  </g>
</svg>
